
      <svg data-logo="logo" xmlns="http://www.w3.org/2000/svg" viewBox="0 0 256 43">
        <g id="logogram" transform="translate(0, 1) rotate(0) "><path d="M37.5569 2.04585C38.4821 1.08338 39.7385 0.542663 41.0469 0.542664C46.9335 0.542664 52.4811 0.542667 57.9442 0.542678C68.932 0.542701 74.4342 14.3629 66.6646 22.4456L49.7407 40.0517C48.9637 40.86 47.6352 40.2875 47.6352 39.1444V23.6376L49.591 21.6029C51.145 19.9864 50.0444 17.2223 47.8468 17.2223H22.9684L37.5569 2.04585Z" fill="#3A04FF"/><path d="M33.0467 38.8142C32.1215 39.7767 30.8651 40.3174 29.5567 40.3174C23.6701 40.3174 18.1225 40.3174 12.6594 40.3174C1.67159 40.3173 -3.83061 26.4972 3.93897 18.4144L20.8629 0.808361C21.6399 8.48472e-05 22.9684 0.57254 22.9684 1.71562L22.9684 17.2223L21.0126 19.2571C19.4586 20.8737 20.5592 23.6377 22.7568 23.6377L47.6352 23.6376L33.0467 38.8142Z" fill="#3A04FF"/></g>
        <g id="logotype" transform="translate(77, 7.5)"><path fill="#111111" d="M24.90 3.43L31.24 3.43L22.52 28L15.03 28L6.32 3.43L12.69 3.43L18.77 21.98L24.90 3.43ZM36.73 6.44Q35.16 6.44 34.16 5.51Q33.16 4.58 33.16 3.22L33.16 3.22Q33.16 1.82 34.16 0.89Q35.16-0.04 36.73-0.04L36.73-0.04Q38.27-0.04 39.27 0.89Q40.27 1.82 40.27 3.22L40.27 3.22Q40.27 4.58 39.27 5.51Q38.27 6.44 36.73 6.44L36.73 6.44ZM33.72 8.47L39.70 8.47L39.70 28L33.72 28L33.72 8.47ZM50.03 11.23Q50.87 9.87 52.45 9.03Q54.02 8.19 56.05 8.19L56.05 8.19Q58.47 8.19 60.42 9.41Q62.39 10.64 63.52 12.91Q64.66 15.19 64.66 18.20L64.66 18.20Q64.66 21.21 63.52 23.50Q62.39 25.80 60.42 27.04Q58.47 28.28 56.05 28.28L56.05 28.28Q53.98 28.28 52.45 27.46Q50.91 26.63 50.03 25.27L50.03 25.27L50.03 28L44.05 28L44.05 2.10L50.03 2.10L50.03 11.23ZM58.57 18.20Q58.57 15.96 57.33 14.68Q56.09 13.40 54.27 13.40L54.27 13.40Q52.48 13.40 51.24 14.70Q50.00 15.99 50.00 18.23L50.00 18.23Q50.00 20.48 51.24 21.77Q52.48 23.06 54.27 23.06L54.27 23.06Q56.05 23.06 57.31 21.75Q58.57 20.44 58.57 18.20L58.57 18.20ZM86.22 17.92Q86.22 18.76 86.12 19.67L86.12 19.67L72.57 19.67Q72.71 21.49 73.74 22.45Q74.78 23.41 76.28 23.41L76.28 23.41Q78.52 23.41 79.39 21.52L79.39 21.52L85.77 21.52Q85.28 23.45 84.00 24.99Q82.72 26.53 80.80 27.41Q78.87 28.28 76.49 28.28L76.49 28.28Q73.62 28.28 71.38 27.05Q69.14 25.83 67.88 23.55Q66.62 21.28 66.62 18.23L66.62 18.23Q66.62 15.19 67.86 12.91Q69.11 10.64 71.34 9.41Q73.59 8.19 76.49 8.19L76.49 8.19Q79.33 8.19 81.53 9.38Q83.73 10.57 84.98 12.77Q86.22 14.98 86.22 17.92L86.22 17.92ZM72.61 16.34L80.09 16.34Q80.09 14.80 79.05 13.89Q78.00 12.98 76.42 12.98L76.42 12.98Q74.92 12.98 73.88 13.86Q72.85 14.73 72.61 16.34L72.61 16.34ZM88.36 15.68Q88.36 12.04 89.93 9.19Q91.51 6.33 94.32 4.74Q97.14 3.15 100.71 3.15L100.71 3.15Q105.09 3.15 108.20 5.46Q111.31 7.77 112.37 11.76L112.37 11.76L105.78 11.76Q105.05 10.22 103.70 9.41Q102.36 8.61 100.64 8.61L100.64 8.61Q97.88 8.61 96.16 10.53Q94.45 12.46 94.45 15.68L94.45 15.68Q94.45 18.90 96.16 20.82Q97.88 22.75 100.64 22.75L100.64 22.75Q102.36 22.75 103.70 21.95Q105.05 21.14 105.78 19.60L105.78 19.60L112.37 19.60Q111.31 23.59 108.20 25.88Q105.09 28.18 100.71 28.18L100.71 28.18Q97.14 28.18 94.32 26.58Q91.51 24.99 89.93 22.16Q88.36 19.32 88.36 15.68L88.36 15.68ZM122.03 11.72Q123.08 10.11 124.65 9.19Q126.23 8.26 128.15 8.26L128.15 8.26L128.15 14.59L126.51 14.59Q124.27 14.59 123.15 15.56Q122.03 16.52 122.03 18.93L122.03 18.93L122.03 28L116.04 28L116.04 8.47L122.03 8.47L122.03 11.72ZM129.83 18.20Q129.83 15.19 130.97 12.91Q132.10 10.64 134.06 9.41Q136.03 8.19 138.44 8.19L138.44 8.19Q140.50 8.19 142.06 9.03Q143.62 9.87 144.46 11.23L144.46 11.23L144.46 8.47L150.44 8.47L150.44 28L144.46 28L144.46 25.23Q143.59 26.60 142.03 27.44Q140.47 28.28 138.41 28.28L138.41 28.28Q136.03 28.28 134.06 27.04Q132.10 25.80 130.97 23.50Q129.83 21.21 129.83 18.20L129.83 18.20ZM144.46 18.23Q144.46 15.99 143.22 14.70Q141.97 13.40 140.19 13.40L140.19 13.40Q138.41 13.40 137.16 14.68Q135.92 15.96 135.92 18.20L135.92 18.20Q135.92 20.44 137.16 21.75Q138.41 23.06 140.19 23.06L140.19 23.06Q141.97 23.06 143.22 21.77Q144.46 20.48 144.46 18.23L144.46 18.23ZM164.59 8.47L164.59 13.44L161.37 13.44L161.37 28L155.38 28L155.38 13.44L153.21 13.44L153.21 8.47L155.38 8.47L155.38 7.91Q155.38 4.30 157.45 2.43Q159.51 0.56 163.50 0.56L163.50 0.56Q164.17 0.56 164.48 0.59L164.48 0.59L164.48 5.67Q162.77 5.56 162.06 6.16Q161.37 6.75 161.37 8.29L161.37 8.29L161.37 8.47L164.59 8.47ZM176.13 22.93L178.27 22.93L178.27 28L175.22 28Q171.97 28 170.15 26.41Q168.33 24.81 168.33 21.21L168.33 21.21L168.33 13.44L165.95 13.44L165.95 8.47L168.33 8.47L168.33 3.71L174.31 3.71L174.31 8.47L178.24 8.47L178.24 13.44L174.31 13.44L174.31 21.28Q174.31 22.16 174.74 22.54Q175.16 22.93 176.13 22.93L176.13 22.93Z"/></g>
        
      </svg>
    